<svg width="20" height="20" viewBox="0 0 20 20" fill="none" xmlns="http://www.w3.org/2000/svg">
<g clip-path="url(#clip0_1032_13525)">
<path d="M10 12.5C11.3807 12.5 12.5 11.3807 12.5 10C12.5 8.61929 11.3807 7.5 10 7.5C8.61929 7.5 7.5 8.61929 7.5 10C7.5 11.3807 8.61929 12.5 10 12.5Z" stroke="#BEBECC" stroke-width="2" stroke-linecap="round" stroke-linejoin="round"/>
<path d="M16.1667 12.5007C16.0558 12.752 16.0227 13.0308 16.0717 13.3011C16.1207 13.5715 16.2496 13.8209 16.4417 14.0173L16.4917 14.0673C16.6467 14.2221 16.7696 14.4059 16.8535 14.6083C16.9373 14.8106 16.9805 15.0275 16.9805 15.2465C16.9805 15.4655 16.9373 15.6824 16.8535 15.8847C16.7696 16.087 16.6467 16.2709 16.4917 16.4257C16.3369 16.5806 16.1531 16.7035 15.9508 16.7874C15.7484 16.8713 15.5316 16.9145 15.3125 16.9145C15.0935 16.9145 14.8766 16.8713 14.6743 16.7874C14.472 16.7035 14.2882 16.5806 14.1334 16.4257L14.0834 16.3757C13.887 16.1835 13.6375 16.0547 13.3672 16.0056C13.0969 15.9566 12.8181 15.9897 12.5667 16.1007C12.3202 16.2063 12.11 16.3817 11.962 16.6053C11.8139 16.8288 11.7344 17.0908 11.7334 17.359V17.5007C11.7334 17.9427 11.5578 18.3666 11.2452 18.6792C10.9327 18.9917 10.5087 19.1673 10.0667 19.1673C9.62468 19.1673 9.20076 18.9917 8.8882 18.6792C8.57564 18.3666 8.40004 17.9427 8.40004 17.5007V17.4257C8.39359 17.1498 8.30431 16.8823 8.1438 16.6579C7.98329 16.4335 7.75899 16.2626 7.50004 16.1673C7.24869 16.0564 6.96988 16.0233 6.69955 16.0723C6.42922 16.1213 6.17977 16.2502 5.98337 16.4423L5.93337 16.4923C5.77859 16.6473 5.59477 16.7702 5.39244 16.8541C5.19011 16.938 4.97323 16.9811 4.75421 16.9811C4.53518 16.9811 4.3183 16.938 4.11597 16.8541C3.91364 16.7702 3.72983 16.6473 3.57504 16.4923C3.42008 16.3375 3.29715 16.1537 3.21327 15.9514C3.1294 15.7491 3.08623 15.5322 3.08623 15.3132C3.08623 15.0941 3.1294 14.8772 3.21327 14.6749C3.29715 14.4726 3.42008 14.2888 3.57504 14.134L3.62504 14.084C3.81715 13.8876 3.94603 13.6381 3.99504 13.3678C4.04406 13.0975 4.01097 12.8187 3.90004 12.5673C3.7944 12.3208 3.619 12.1106 3.39543 11.9626C3.17185 11.8145 2.90986 11.7351 2.64171 11.734H2.50004C2.05801 11.734 1.63409 11.5584 1.32153 11.2458C1.00897 10.9333 0.833374 10.5093 0.833374 10.0673C0.833374 9.62529 1.00897 9.20137 1.32153 8.88881C1.63409 8.57625 2.05801 8.40065 2.50004 8.40065H2.57504C2.85087 8.3942 3.11838 8.30492 3.34279 8.14441C3.5672 7.9839 3.73814 7.7596 3.83337 7.50065C3.9443 7.2493 3.97739 6.97049 3.92838 6.70016C3.87936 6.42983 3.75049 6.18038 3.55837 5.98398L3.50837 5.93398C3.35341 5.7792 3.23048 5.59538 3.14661 5.39305C3.06273 5.19072 3.01956 4.97384 3.01956 4.75482C3.01956 4.53579 3.06273 4.31891 3.14661 4.11658C3.23048 3.91425 3.35341 3.73044 3.50837 3.57565C3.66316 3.42069 3.84698 3.29776 4.04931 3.21388C4.25164 3.13001 4.46852 3.08684 4.68754 3.08684C4.90657 3.08684 5.12344 3.13001 5.32577 3.21388C5.5281 3.29776 5.71192 3.42069 5.86671 3.57565L5.91671 3.62565C6.11311 3.81777 6.36255 3.94664 6.63288 3.99565C6.90321 4.04467 7.18203 4.01158 7.43337 3.90065H7.50004C7.74652 3.79502 7.95672 3.61961 8.10478 3.39604C8.25285 3.17246 8.3323 2.91047 8.33337 2.64232V2.50065C8.33337 2.05862 8.50897 1.6347 8.82153 1.32214C9.13409 1.00958 9.55801 0.833984 10 0.833984C10.4421 0.833984 10.866 1.00958 11.1786 1.32214C11.4911 1.6347 11.6667 2.05862 11.6667 2.50065V2.57565C11.6678 2.84381 11.7472 3.1058 11.8953 3.32937C12.0434 3.55295 12.2536 3.72835 12.5 3.83398C12.7514 3.94491 13.0302 3.978 13.3005 3.92899C13.5709 3.87997 13.8203 3.7511 14.0167 3.55898L14.0667 3.50898C14.2215 3.35402 14.4053 3.23109 14.6076 3.14722C14.81 3.06334 15.0268 3.02017 15.2459 3.02017C15.4649 3.02017 15.6818 3.06334 15.8841 3.14722C16.0864 3.23109 16.2703 3.35402 16.425 3.50898C16.58 3.66377 16.7029 3.84759 16.7868 4.04992C16.8707 4.25225 16.9139 4.46913 16.9139 4.68815C16.9139 4.90718 16.8707 5.12405 16.7868 5.32639C16.7029 5.52872 16.58 5.71253 16.425 5.86732L16.375 5.91732C16.1829 6.11372 16.0541 6.36316 16.005 6.63349C15.956 6.90382 15.9891 7.18264 16.1 7.43398V7.50065C16.2057 7.74713 16.3811 7.95733 16.6047 8.1054C16.8282 8.25346 17.0902 8.33292 17.3584 8.33398H17.5C17.9421 8.33398 18.366 8.50958 18.6786 8.82214C18.9911 9.1347 19.1667 9.55862 19.1667 10.0007C19.1667 10.4427 18.9911 10.8666 18.6786 11.1792C18.366 11.4917 17.9421 11.6673 17.5 11.6673H17.425C17.1569 11.6684 16.8949 11.7478 16.6713 11.8959C16.4477 12.044 16.2723 12.2542 16.1667 12.5007V12.5007Z" stroke="#BEBECC" stroke-width="2" stroke-linecap="round" stroke-linejoin="round"/>
</g>
<defs>
<clipPath id="clip0_1032_13525">
<rect width="20" height="20" fill="white"/>
</clipPath>
</defs>
</svg>
